<svg width="120" height="120" viewBox="0 0 120 120" fill="none" xmlns="http://www.w3.org/2000/svg">
  <!-- 背景圆形 -->
  <circle cx="60" cy="60" r="58" fill="url(#gradient)" stroke="url(#strokeGradient)" stroke-width="4"/>
  
  <!-- 渐变定义 -->
  <defs>
    <!-- 主渐变 -->
    <linearGradient id="gradient" x1="0%" y1="0%" x2="100%" y2="100%">
      <stop offset="0%" style="stop-color:#409EFF;stop-opacity:1" />
      <stop offset="50%" style="stop-color:#67C23A;stop-opacity:1" />
      <stop offset="100%" style="stop-color:#E6A23C;stop-opacity:1" />
    </linearGradient>
    
    <!-- 边框渐变 -->
    <linearGradient id="strokeGradient" x1="0%" y1="0%" x2="100%" y2="100%">
      <stop offset="0%" style="stop-color:#409EFF;stop-opacity:0.8" />
      <stop offset="100%" style="stop-color:#67C23A;stop-opacity:0.8" />
    </linearGradient>
    
    <!-- 组件渐变 -->
    <linearGradient id="componentGradient" x1="0%" y1="0%" x2="100%" y2="100%">
      <stop offset="0%" style="stop-color:#FFFFFF;stop-opacity:1" />
      <stop offset="100%" style="stop-color:#F5F7FA;stop-opacity:1" />
    </linearGradient>
  </defs>
  
  <!-- 主要组件图标 -->
  <!-- 左侧组件 -->
  <rect x="25" y="35" width="25" height="20" rx="3" fill="url(#componentGradient)" stroke="#409EFF" stroke-width="1.5"/>
  <rect x="28" y="38" width="19" height="3" rx="1" fill="#409EFF"/>
  <rect x="28" y="43" width="15" height="2" rx="1" fill="#67C23A"/>
  <rect x="28" y="47" width="12" height="2" rx="1" fill="#E6A23C"/>
  
  <!-- 右侧组件 -->
  <rect x="70" y="35" width="25" height="20" rx="3" fill="url(#componentGradient)" stroke="#67C23A" stroke-width="1.5"/>
  <rect x="73" y="38" width="19" height="3" rx="1" fill="#67C23A"/>
  <rect x="73" y="43" width="15" height="2" rx="1" fill="#409EFF"/>
  <rect x="73" y="47" width="12" height="2" rx="1" fill="#E6A23C"/>
  
  <!-- 底部组件 -->
  <rect x="47.5" y="65" width="25" height="20" rx="3" fill="url(#componentGradient)" stroke="#E6A23C" stroke-width="1.5"/>
  <rect x="50.5" y="68" width="19" height="3" rx="1" fill="#E6A23C"/>
  <rect x="50.5" y="73" width="15" height="2" rx="1" fill="#409EFF"/>
  <rect x="50.5" y="77" width="12" height="2" rx="1" fill="#67C23A"/>
  
  <!-- 连接线 -->
  <path d="M 50 45 L 70 45" stroke="#409EFF" stroke-width="2" stroke-linecap="round"/>
  <path d="M 60 55 L 60 65" stroke="#67C23A" stroke-width="2" stroke-linecap="round"/>
  <path d="M 50 75 L 70 75" stroke="#E6A23C" stroke-width="2" stroke-linecap="round"/>
  
  <!-- 装饰性代码符号 -->
  <text x="60" y="95" text-anchor="middle" font-family="monospace" font-size="8" fill="#606266" font-weight="bold">{ }</text>
  
  <!-- 中心点 -->
  <circle cx="60" cy="60" r="3" fill="#409EFF"/>
</svg>
